<svg width="64" height="64" viewBox="0 0 64 64" fill="none" xmlns="http://www.w3.org/2000/svg">
  <rect width="64" height="64" rx="12" fill="#2563EB"/>
  <path d="M13 40.5C13 36.9101 15.9101 34 19.5 34H44.5C48.0899 34 51 36.9101 51 40.5V44.5C51 45.8807 49.8807 47 48.5 47H15.5C14.1193 47 13 45.8807 13 44.5V40.5Z" fill="white"/>
  <rect x="17" y="47" width="6" height="4" rx="1" fill="#1E40AF"/>
  <rect x="41" y="47" width="6" height="4" rx="1" fill="#1E40AF"/>
  <path d="M43 19.5L50 25.5V34H46L43 19.5Z" fill="white"/>
  <path d="M21 19.5L14 25.5V34H18L21 19.5Z" fill="white"/>
  <rect x="21" y="17" width="22" height="17" rx="2" fill="white"/>
  <rect x="24" y="22" width="16" height="2" rx="1" fill="#2563EB"/>
  <rect x="24" y="26" width="10" height="2" rx="1" fill="#2563EB"/>
  <circle cx="18" cy="40" r="3" fill="#1E40AF"/>
  <circle cx="46" cy="40" r="3" fill="#1E40AF"/>
</svg>